# xmcd CD database file
#
# Track frame offsets:
#	150
#	31612
#	52516
#	76472
#	95741
#	121442
#	140263
#	159087
#	166554
#
# Disc length: 2458 seconds
#
# Revision: 0
# Processed by: cddbd v1.5.2PL0 Copyright (c) Steve Scherf et al.
# Submitted via: CDex 1.79
#
DISCID=58099809
DTITLE=Jedubaby - Padlym andeleum z E55
DYEAR=1998
DGENRE=Blues
TTITLE0=Teskliva, jen tak
TTITLE1=Blues starejch salu
TTITLE2=Ucaprtanej song
TTITLE3=Slunecni svit
TTITLE4=O gilotine a hlave
TTITLE5=Cupr holky
TTITLE6=S rukama v kapse
TTITLE7=Padlym andelum z E55 
TTITLE8=Zelenej led
EXTD=YEAR: 1998
EXTT0=
EXTT1=
EXTT2=
EXTT3=
EXTT4=
EXTT5=
EXTT6=
EXTT7=
EXTT8=
PLAYORDER=
